# xmcd
#
# Track frame offsets: 
#        150
#        11222
#        25082
#        42030
#        58490
#        72175
#        87402
#        107967
#        128157
#        149590
#        163442
#        185237
#        207662
#        225060
#        244355
#        266620
#        287225
#        307362
#        333612
#
# Disc length: 4643 seconds
#
# Revision: 1
# Processed by: cddbd v1.5.2PL0 Copyright (c) Steve Scherf et al.
# Submitted via: ExactAudioCopy v1.0b6
#
DISCID=37122113
DTITLE=布施明 - スペシャルベスト ～1965-2009～
DYEAR=2009
DGENRE=JPop
TTITLE0=君に涙とほほえみを
TTITLE1=霧の摩周湖
TTITLE2=恋
TTITLE3=愛は不死鳥
TTITLE4=そっとおやすみ
TTITLE5=積木の部屋
TTITLE6=シクラメンのかほり
TTITLE7=心をあずけるまで
TTITLE8=MY WAY
TTITLE9=君は薔薇より美しい
TTITLE10=カルチェラタンの雪
TTITLE11=自由
TTITLE12=少年よ
TTITLE13=宙よ (Ha Neul Yi Yeo Je Bal)
TTITLE14=ワインレッドの心
TTITLE15=I LOVE YOU
TTITLE16=LOVE LOVE LOVE
TTITLE17=駅
TTITLE18=i say, "yes"
EXTD=
EXTT0=
EXTT1=
EXTT2=
EXTT3=
EXTT4=
EXTT5=
EXTT6=
EXTT7=
EXTT8=
EXTT9=
EXTT10=
EXTT11=
EXTT12=
EXTT13=
EXTT14=
EXTT15=
EXTT16=
EXTT17=
EXTT18=
PLAYORDER=
